<?xml version="1.0" encoding="UTF-8" standalone="no"?>
<svg
   viewBox="0 0 384 512"
   version="1.1"
   id="svg890"
   sodipodi:docname="map-marker-color.svg"
   inkscape:version="1.1.1 (eb90963e84, 2021-10-02)"
   xmlns:inkscape="http://www.inkscape.org/namespaces/inkscape"
   xmlns:sodipodi="http://sodipodi.sourceforge.net/DTD/sodipodi-0.dtd"
   xmlns="http://www.w3.org/2000/svg"
   xmlns:svg="http://www.w3.org/2000/svg">
  <defs
     id="defs894" />
  <sodipodi:namedview
     id="namedview892"
     pagecolor="#505050"
     bordercolor="#eeeeee"
     borderopacity="1"
     inkscape:pageshadow="0"
     inkscape:pageopacity="0"
     inkscape:pagecheckerboard="0"
     showgrid="false"
     inkscape:zoom="2.2792969"
     inkscape:cx="191.94516"
     inkscape:cy="256"
     inkscape:window-width="2560"
     inkscape:window-height="1376"
     inkscape:window-x="0"
     inkscape:window-y="27"
     inkscape:window-maximized="1"
     inkscape:current-layer="g888" />
  <g
     id="g888">
    <path
       d="M192 0C86 0 0 86 0 192c0 77.41 27 99 172.27 309.67a24 24 0 0 0 39.46 0C357 291 384 269.41 384 192 384 86 298 0 192 0zm0 288a96 96 0 1 1 96-96 96 96 0 0 1-96 96z"
       id="path884"
       style="fill:#f1f1f1;fill-opacity:0.72941178" />
    <path
       d="M192 256a64 64 0 1 1 64-64 64 64 0 0 1-64 64z"
       id="path886"
       style="fill:#51b7ff;fill-opacity:1" />
  </g>
</svg>
